# xmcd
#
# Track frame offsets:
#	150
#	17830
#	37610
#	50675
#	78654
#	97020
#	114315
#	135127
#	152445
#	171297
#	189385
#	204152
#	225932
#
# Disc length: 3310 seconds
#
# Revision: 2
# Processed by: cddbd v1.5.2PL0 Copyright (c) Steve Scherf et al.
# Submitted via: audiograbber 1.83.01
#
DISCID=8f0cec0d
DTITLE=Stephan Scheuss - One Pure Soul
DYEAR=2010
DGENRE=Blues
TTITLE0=Baby,You Can Drive My Car
TTITLE1=Drowning In The Sea Of Love
TTITLE2=Everytime
TTITLE3=Harvest For The World
TTITLE4=Help The Poor
TTITLE5=Just Go
TTITLE6=Maniac
TTITLE7=Reason To Move
TTITLE8=My One And Only Love
TTITLE9=My Funny Valentine
TTITLE10=No Blues
TTITLE11=The Tears Of A Clown
TTITLE12=What's Going On
EXTD=
EXTT0=
EXTT1=
EXTT2=
EXTT3=
EXTT4=
EXTT5=
EXTT6=
EXTT7=
EXTT8=
EXTT9=
EXTT10=
EXTT11=
EXTT12=
PLAYORDER=
